<svg width="20" height="21" viewBox="0 0 20 21" fill="none" xmlns="http://www.w3.org/2000/svg">
<path d="M19.15 1.86025C18.768 1.47082 18.2835 1.19747 17.7526 1.07183C17.2217 0.946185 16.6661 0.973375 16.15 1.15025L2.00005 5.88025C1.42936 6.06705 0.930738 6.4264 0.573002 6.90869C0.215267 7.39098 0.0160652 7.97242 0.00289517 8.57276C-0.0102749 9.17309 0.163236 9.76271 0.499477 10.2602C0.835717 10.7577 1.31811 11.1386 1.88005 11.3503L7.12005 13.3503C7.23937 13.3959 7.34801 13.4656 7.43919 13.5551C7.53038 13.6445 7.60216 13.7518 7.65005 13.8703L9.65005 19.1203C9.85363 19.6742 10.2231 20.152 10.708 20.4884C11.193 20.8248 11.7698 21.0036 12.36 21.0003H12.43C13.0311 20.9893 13.6136 20.7906 14.096 20.4319C14.5784 20.0733 14.9365 19.5727 15.1201 19.0003L19.85 4.83025C20.0221 4.31919 20.0477 3.7702 19.924 3.24534C19.8003 2.72048 19.5322 2.24071 19.15 1.86025ZM18 4.20025L13.22 18.3803C13.1645 18.5597 13.0531 18.7167 12.9019 18.8283C12.7508 18.9398 12.5679 19.0001 12.38 19.0003C12.1933 19.0033 12.01 18.9495 11.8546 18.8459C11.6992 18.7423 11.579 18.5938 11.51 18.4203L9.51005 13.1703C9.36505 12.7888 9.14144 12.4421 8.85373 12.1526C8.56602 11.8632 8.22065 11.6375 7.84005 11.4903L2.59005 9.49025C2.41294 9.42536 2.2607 9.30645 2.15483 9.15034C2.04896 8.99423 1.99482 8.8088 2.00005 8.62025C2.0002 8.4324 2.06047 8.24952 2.17202 8.09838C2.28358 7.94724 2.44058 7.83576 2.62005 7.78025L16.8 3.05025C16.9629 2.9839 17.1414 2.96613 17.3141 2.99908C17.4868 3.03203 17.6462 3.1143 17.7731 3.23594C17.9001 3.35758 17.989 3.51338 18.0293 3.68451C18.0696 3.85565 18.0594 4.03478 18 4.20025Z" fill="black"/>
</svg>
