<svg width="48" height="48" viewBox="0 0 48 48" fill="none" xmlns="http://www.w3.org/2000/svg">
<g clip-path="url(#clip0_1803_14999)">
<path d="M37.9999 24.0922C36.8939 24.0922 36 24.9883 36 26.092V42.0922C36 43.1941 35.1039 44.092 34.0001 44.092H6C4.89587 44.092 4.00012 43.1941 4.00012 42.0922V14.092C4.00012 12.9901 4.89587 12.0922 6 12.0922H22.0001C23.1061 12.0922 24 11.196 24 10.0923C24 8.98816 23.1061 8.09204 22.0001 8.09204H6C2.69202 8.09204 0 10.7841 0 14.092V42.0922C0 45.4001 2.69202 48.0922 6 48.0922H34.0001C37.3081 48.0922 40.0001 45.4001 40.0001 42.0922V26.092C40.0001 24.9861 39.1058 24.0922 37.9999 24.0922Z" fill="white"/>
<path d="M18.7518 22.2703C18.6119 22.4102 18.5178 22.5881 18.4778 22.78L17.0639 29.8523C16.998 30.1801 17.102 30.5181 17.3378 30.7561C17.5279 30.9462 17.7839 31.048 18.0461 31.048C18.1098 31.048 18.1761 31.0421 18.242 31.0282L25.3121 29.6143C25.508 29.574 25.686 29.4802 25.824 29.34L41.648 13.516L34.5779 6.44629L18.7518 22.2703Z" fill="white"/>
<path d="M46.5359 1.5563C44.5862 -0.393768 41.4141 -0.393768 39.4658 1.5563L36.698 4.32413L43.7681 11.3942L46.5359 8.62601C47.48 7.68411 48 6.42801 48 5.09207C48 3.75613 47.48 2.50003 46.5359 1.5563Z" fill="white"/>
</g>
<defs>
<clipPath id="clip0_1803_14999">
<rect width="48" height="48" fill="white"/>
</clipPath>
</defs>
</svg>
