<svg width="48" height="48" viewBox="0 0 48 48" fill="none" xmlns="http://www.w3.org/2000/svg">
<g clip-path="url(#clip0_1802_14944)">
<path d="M21.1875 45.0938C23.5175 45.0938 25.4062 43.205 25.4062 40.875C25.4062 38.545 23.5175 36.6562 21.1875 36.6562C18.8575 36.6562 16.9688 38.545 16.9688 40.875C16.9688 43.205 18.8575 45.0938 21.1875 45.0938Z" fill="white"/>
<path d="M35.3435 45.0938C37.6735 45.0938 39.5623 43.205 39.5623 40.875C39.5623 38.545 37.6735 36.6562 35.3435 36.6562C33.0136 36.6562 31.1248 38.545 31.1248 40.875C31.1248 43.205 33.0136 45.0938 35.3435 45.0938Z" fill="white"/>
<path d="M1.40624 5.71883H7.27055L14.0597 29.4855L13.5272 30.5505C12.1251 33.3517 14.1605 36.6561 17.301 36.6561H40.9685C41.7458 36.6561 42.3747 36.0272 42.3747 35.2499C42.3747 34.4726 41.7458 33.8437 40.9685 33.8437H17.301C16.2567 33.8437 15.5742 32.7441 16.0431 31.8084L16.4317 31.0312H40.9685C41.5961 31.0312 42.1482 30.6151 42.3212 30.0108L47.9462 10.3234C48.067 9.89911 47.9819 9.44312 47.7169 9.09024C47.4504 8.73868 47.0344 8.53131 46.5936 8.53131H10.999L9.68338 3.92662C9.51032 3.3224 8.95832 2.90625 8.33067 2.90625H1.40624C0.628965 2.90625 0 3.53521 0 4.31249C0 5.08977 0.628965 5.71883 1.40624 5.71883V5.71883Z" fill="white"/>
</g>
<defs>
<clipPath id="clip0_1802_14944">
<rect width="48" height="48" fill="white"/>
</clipPath>
</defs>
</svg>
