<svg width="48" height="48" viewBox="0 0 48 48" fill="none" xmlns="http://www.w3.org/2000/svg">
<path d="M36 30C34.7418 30.003 33.5021 30.3035 32.3821 30.877C31.2622 31.4505 30.2938 32.2808 29.556 33.3L19.526 26.614C20.1581 24.9287 20.1581 23.0714 19.526 21.386L29.556 14.7C30.6818 16.2263 32.315 17.3011 34.1621 17.7313C36.0092 18.1615 37.9492 17.9189 39.6335 17.0471C41.3178 16.1754 42.636 14.7315 43.3513 12.9751C44.0667 11.2186 44.1322 9.26461 43.5361 7.46417C42.94 5.66372 41.7215 4.13484 40.0993 3.15221C38.4772 2.16959 36.5578 1.79762 34.6861 2.10313C32.8143 2.40865 31.1128 3.37164 29.8873 4.81907C28.6618 6.2665 27.9926 8.1035 28 10C28.013 10.2915 28.0424 10.5819 28.088 10.87L17.306 18.058C16.157 17.0222 14.7323 16.3418 13.2044 16.0991C11.6766 15.8564 10.1112 16.0619 8.69773 16.6907C7.28429 17.3195 6.08349 18.3446 5.24074 19.6419C4.398 20.9392 3.94946 22.453 3.94946 24C3.94946 25.547 4.398 27.0608 5.24074 28.3581C6.08349 29.6554 7.28429 30.6806 8.69773 31.3094C10.1112 31.9382 11.6766 32.1437 13.2044 31.901C14.7323 31.6583 16.157 30.9779 17.306 29.942L28.088 37.13C28.0424 37.4181 28.013 37.7086 28 38C28 39.5823 28.4692 41.129 29.3483 42.4446C30.2273 43.7602 31.4767 44.7856 32.9386 45.3911C34.4004 45.9966 36.0089 46.155 37.5607 45.8463C39.1126 45.5376 40.5381 44.7757 41.6569 43.6569C42.7757 42.5381 43.5376 41.1126 43.8463 39.5608C44.155 38.0089 43.9966 36.4004 43.3911 34.9386C42.7856 33.4768 41.7602 32.2273 40.4446 31.3483C39.129 30.4692 37.5823 30 36 30V30Z" fill="white"/>
</svg>
