<svg width="48" height="48" viewBox="0 0 48 48" fill="none" xmlns="http://www.w3.org/2000/svg">
<path d="M30.865 33.1804C30.6206 32.7232 30.1442 32.4375 29.6251 32.4375H28.2188V25.4063C28.2188 24.629 27.5899 24 26.8126 24H21.1876C20.4103 24 19.7813 24.629 19.7813 25.4063V32.4375H18.3751C17.856 32.4375 17.3795 32.7232 17.135 33.1805C16.8905 33.6378 16.918 34.1926 17.205 34.6238L22.83 43.0613C23.0909 43.4528 23.5304 43.6876 24 43.6876C24.4696 43.6876 24.9091 43.4528 25.17 43.0613L30.795 34.6238C31.0821 34.1925 31.1094 33.6377 30.865 33.1804Z" fill="white"/>
<path d="M40.824 16.4473C40.7002 14.7668 40.018 13.199 38.8164 11.9974C36.9985 10.1795 34.2629 9.63684 31.8604 10.3075C29.5496 6.59184 25.5744 4.3125 21.1875 4.3125C14.5929 4.3125 9.16163 9.38128 8.59444 15.9457C3.67388 17.1885 0 21.6695 0 26.8125C0 33.0157 5.14059 38.0625 11.3438 38.0625H16.1173L14.8649 36.1838C14.0011 34.8861 13.9201 33.2272 14.6548 31.8552C15.1602 30.909 15.991 30.21 16.9688 29.8653V25.4062C16.9688 23.0799 18.8613 21.1875 21.1876 21.1875H26.8126C29.1389 21.1875 31.0313 23.0799 31.0313 25.4062V29.8653C32.0092 30.21 32.84 30.909 33.3454 31.8552C34.0801 33.2272 33.9991 34.8861 33.1366 36.1824L31.8831 38.0625H36.6562C42.8594 38.0625 48 33.0157 48 26.8125C48 22.1714 45.0888 18.1458 40.824 16.4473Z" fill="white"/>
</svg>
