<svg width="48" height="48" viewBox="0 0 48 48" fill="none" xmlns="http://www.w3.org/2000/svg">
<path d="M43.1999 24C43.1999 13.4131 34.5868 4.80005 23.9999 4.80005C18.8716 4.80005 14.0495 6.79777 10.4236 10.4247L14.949 14.9501C17.3673 12.5318 20.5813 11.2004 24.0008 11.2004C31.0578 11.2004 36.8005 16.9421 36.8005 24H31.9996L40.0002 31.9997L47.9999 24H43.1999Z" fill="white"/>
<path d="M24 36.8005C16.9421 36.8005 11.2003 31.0578 11.2003 23.9999H16.0003L7.99969 16.0002L0 23.9999H4.8C4.8 34.5868 13.4131 43.1999 24 43.1999C29.1293 43.1999 33.9504 41.2031 37.5763 37.5762L33.0509 33.0508C30.6336 35.4681 27.4186 36.8005 24 36.8005Z" fill="white"/>
</svg>
