<svg width="48" height="48" viewBox="0 0 48 48" fill="none" xmlns="http://www.w3.org/2000/svg">
<g clip-path="url(#clip0_1803_14979)">
<path d="M0 42.9766V9.05271C0 7.72756 1.06994 6.65762 2.39509 6.65762H27.4356H32.4712L27.6908 11.438H27.4356H4.78037V40.5815H33.9239V35.3496V28.2036L38.7043 23.4233V35.3496V42.9766C38.7043 44.292 37.6344 45.3717 36.3092 45.3717H2.39509C1.06994 45.3717 0 44.3018 0 42.9766ZM20.8196 24.6208L15.7153 19.5165C14.2822 18.0834 11.9558 18.0834 10.5227 19.5165C9.82577 20.2134 9.44295 21.1361 9.44295 22.1177C9.44295 23.0993 9.82577 24.022 10.5227 24.7092L18.2184 32.4049C19.6515 33.838 21.9779 33.838 23.411 32.4049L46.9203 8.89566C47.6172 8.19873 48 7.27603 48 6.30425C48 5.32265 47.6172 4.39995 46.9203 3.70302C45.4871 2.26989 43.1607 2.26989 41.7276 3.70302L20.8196 24.6208Z" fill="white"/>
</g>
<defs>
<clipPath id="clip0_1803_14979">
<rect width="48" height="48" fill="white"/>
</clipPath>
</defs>
</svg>
