<svg width="48" height="48" viewBox="0 0 48 48" fill="none" xmlns="http://www.w3.org/2000/svg">
<path d="M43.043 3.4922H32.0566L31.196 1.78014C30.8242 1.03361 30.0616 0.56186 29.2276 0.562516H18.7632C17.9307 0.559329 17.1697 1.0323 16.804 1.78014L15.9434 3.4922H4.95703C4.14806 3.4922 3.49219 4.14808 3.49219 4.95705V7.88673C3.49219 8.6957 4.14806 9.35158 4.95703 9.35158H43.043C43.8519 9.35158 44.5078 8.6957 44.5078 7.88673V4.95705C44.5078 4.14808 43.8519 3.4922 43.043 3.4922Z" fill="white"/>
<path d="M8.36278 43.3177C8.50781 45.6333 10.428 47.4372 12.7481 47.4375H35.2519C37.572 47.4372 39.4923 45.6333 39.6372 43.3177L41.5781 12.2812H6.42188L8.36278 43.3177Z" fill="white"/>
</svg>
