<svg width="48" height="48" viewBox="0 0 48 48" fill="none" xmlns="http://www.w3.org/2000/svg">
<path d="M46.5 7.50105H27V3.00105C27 2.55405 26.802 2.13104 26.457 1.84604C26.115 1.56104 25.656 1.43804 25.224 1.52804L1.224 6.02805C0.513 6.16005 0 6.77805 0 7.50105V40.501C0 41.221 0.513 41.842 1.224 41.974L25.224 46.474C25.314 46.492 25.407 46.501 25.5 46.501C25.848 46.501 26.187 46.381 26.457 46.156C26.802 45.871 27 45.445 27 45.001V40.501H46.5C47.328 40.501 48 39.829 48 39.001V9.00105C48 8.17305 47.328 7.50105 46.5 7.50105ZM20.628 29.014C21.174 29.635 21.111 30.583 20.487 31.129C20.202 31.378 19.851 31.501 19.5 31.501C19.083 31.501 18.669 31.327 18.372 30.988L14.01 26.005L10.185 30.925C9.888 31.303 9.444 31.501 9 31.501C8.679 31.501 8.355 31.399 8.079 31.186C7.425 30.676 7.308 29.734 7.815 29.08L11.997 23.704L7.872 18.988C7.326 18.367 7.389 17.419 8.013 16.873C8.634 16.327 9.579 16.387 10.131 17.014L13.875 21.292L18.318 15.58C18.828 14.929 19.77 14.809 20.424 15.319C21.078 15.826 21.195 16.768 20.685 17.425L15.885 23.593L20.628 29.014ZM45 37.501H27V34.501H31.5C32.328 34.501 33 33.829 33 33.001C33 32.173 32.328 31.501 31.5 31.501H27V28.501H31.5C32.328 28.501 33 27.829 33 27.001C33 26.173 32.328 25.501 31.5 25.501H27V22.501H31.5C32.328 22.501 33 21.829 33 21.001C33 20.173 32.328 19.501 31.5 19.501H27V16.501H31.5C32.328 16.501 33 15.829 33 15.001C33 14.173 32.328 13.501 31.5 13.501H27V10.501H45V37.501Z" fill="white"/>
<path d="M40.5 13.501H37.5C36.672 13.501 36 14.173 36 15.001C36 15.829 36.672 16.501 37.5 16.501H40.5C41.328 16.501 42 15.829 42 15.001C42 14.173 41.328 13.501 40.5 13.501Z" fill="white"/>
<path d="M40.5 19.501H37.5C36.672 19.501 36 20.173 36 21.001C36 21.829 36.672 22.501 37.5 22.501H40.5C41.328 22.501 42 21.829 42 21.001C42 20.173 41.328 19.501 40.5 19.501Z" fill="white"/>
<path d="M40.5 25.501H37.5C36.672 25.501 36 26.173 36 27.001C36 27.829 36.672 28.501 37.5 28.501H40.5C41.328 28.501 42 27.829 42 27.001C42 26.173 41.328 25.501 40.5 25.501Z" fill="white"/>
<path d="M40.5 31.501H37.5C36.672 31.501 36 32.173 36 33.001C36 33.829 36.672 34.501 37.5 34.501H40.5C41.328 34.501 42 33.829 42 33.001C42 32.173 41.328 31.501 40.5 31.501Z" fill="white"/>
</svg>
